<mxfile host="app.diagrams.net" modified="2023-08-15T12:25:48.425Z" agent="Mozilla/5.0 (Windows NT 10.0; Win64; x64) AppleWebKit/537.36 (KHTML, like Gecko) Chrome/115.0.0.0 Safari/537.36" etag="N5xDOpwIaH_jBdqxFHWH" version="21.6.8" type="device">
  <diagram name="Page-1" id="TS_N8ai9ddFOJlA52giG">
    <mxGraphModel dx="794" dy="474" grid="1" gridSize="10" guides="1" tooltips="1" connect="1" arrows="1" fold="1" page="1" pageScale="1" pageWidth="850" pageHeight="1100" math="0" shadow="0">
      <root>
        <mxCell id="0" />
        <mxCell id="1" parent="0" />
        <mxCell id="jstP6kvn2U8y0YmbJkcS-1" value="" style="image;html=1;image=img/lib/clip_art/networking/Cloud_Server_128x128.png" parent="1" vertex="1">
          <mxGeometry x="300" y="160" width="80" height="80" as="geometry" />
        </mxCell>
        <mxCell id="jstP6kvn2U8y0YmbJkcS-5" value="" style="image;aspect=fixed;perimeter=ellipsePerimeter;html=1;align=center;shadow=0;dashed=0;spacingTop=3;image=img/lib/active_directory/laptop_client.svg;" parent="1" vertex="1">
          <mxGeometry x="70" y="240" width="45" height="50" as="geometry" />
        </mxCell>
        <mxCell id="jstP6kvn2U8y0YmbJkcS-6" value="" style="endArrow=classic;startArrow=classic;html=1;rounded=0;exitX=1;exitY=0.5;exitDx=0;exitDy=0;entryX=0;entryY=0.75;entryDx=0;entryDy=0;" parent="1" source="jstP6kvn2U8y0YmbJkcS-5" target="jstP6kvn2U8y0YmbJkcS-1" edge="1">
          <mxGeometry width="50" height="50" relative="1" as="geometry">
            <mxPoint x="390" y="270" as="sourcePoint" />
            <mxPoint x="440" y="220" as="targetPoint" />
          </mxGeometry>
        </mxCell>
        <mxCell id="jstP6kvn2U8y0YmbJkcS-7" value="" style="endArrow=classic;startArrow=classic;html=1;rounded=0;entryX=0.75;entryY=1;entryDx=0;entryDy=0;" parent="1" source="jstP6kvn2U8y0YmbJkcS-4" target="jstP6kvn2U8y0YmbJkcS-1" edge="1">
          <mxGeometry width="50" height="50" relative="1" as="geometry">
            <mxPoint x="390" y="270" as="sourcePoint" />
            <mxPoint x="440" y="220" as="targetPoint" />
          </mxGeometry>
        </mxCell>
        <mxCell id="jstP6kvn2U8y0YmbJkcS-8" value="" style="endArrow=classic;startArrow=classic;html=1;rounded=0;exitX=1;exitY=1;exitDx=0;exitDy=0;" parent="1" source="jstP6kvn2U8y0YmbJkcS-10" target="jstP6kvn2U8y0YmbJkcS-3" edge="1">
          <mxGeometry width="50" height="50" relative="1" as="geometry">
            <mxPoint x="430" y="240" as="sourcePoint" />
            <mxPoint x="440" y="220" as="targetPoint" />
          </mxGeometry>
        </mxCell>
        <mxCell id="jstP6kvn2U8y0YmbJkcS-9" value="" style="endArrow=classic;startArrow=classic;html=1;rounded=0;exitX=1;exitY=0.5;exitDx=0;exitDy=0;" parent="1" source="jstP6kvn2U8y0YmbJkcS-10" target="jstP6kvn2U8y0YmbJkcS-2" edge="1">
          <mxGeometry width="50" height="50" relative="1" as="geometry">
            <mxPoint x="450" y="200" as="sourcePoint" />
            <mxPoint x="440" y="220" as="targetPoint" />
          </mxGeometry>
        </mxCell>
        <mxCell id="jstP6kvn2U8y0YmbJkcS-10" value="Load Balancer" style="ellipse;whiteSpace=wrap;html=1;" parent="1" vertex="1">
          <mxGeometry x="380" y="180" width="60" height="30" as="geometry" />
        </mxCell>
        <mxCell id="jstP6kvn2U8y0YmbJkcS-12" value="" style="swimlane;startSize=0;" parent="1" vertex="1">
          <mxGeometry x="200" y="105" width="500" height="320" as="geometry" />
        </mxCell>
        <mxCell id="jstP6kvn2U8y0YmbJkcS-4" value="" style="image;html=1;image=img/lib/clip_art/networking/Cloud_Server_Private_128x128.png" parent="jstP6kvn2U8y0YmbJkcS-12" vertex="1">
          <mxGeometry x="330" y="220" width="80" height="80" as="geometry" />
        </mxCell>
        <mxCell id="jstP6kvn2U8y0YmbJkcS-2" value="" style="image;html=1;image=img/lib/clip_art/networking/Cloud_Server_Private_128x128.png" parent="jstP6kvn2U8y0YmbJkcS-12" vertex="1">
          <mxGeometry x="360" y="40" width="80" height="80" as="geometry" />
        </mxCell>
        <mxCell id="jstP6kvn2U8y0YmbJkcS-14" value="Google Cloud VPC" style="text;html=1;strokeColor=none;fillColor=none;align=center;verticalAlign=middle;whiteSpace=wrap;rounded=0;" parent="jstP6kvn2U8y0YmbJkcS-12" vertex="1">
          <mxGeometry y="290" width="90" height="30" as="geometry" />
        </mxCell>
        <mxCell id="jstP6kvn2U8y0YmbJkcS-3" value="" style="image;html=1;image=img/lib/clip_art/networking/Cloud_Server_Private_128x128.png" parent="jstP6kvn2U8y0YmbJkcS-12" vertex="1">
          <mxGeometry x="360" y="130" width="80" height="80" as="geometry" />
        </mxCell>
        <mxCell id="jstP6kvn2U8y0YmbJkcS-16" value="" style="swimlane;startSize=0;" parent="jstP6kvn2U8y0YmbJkcS-12" vertex="1">
          <mxGeometry x="300" y="40" width="190" height="260" as="geometry" />
        </mxCell>
        <mxCell id="jstP6kvn2U8y0YmbJkcS-18" value="Private Subnet" style="text;html=1;strokeColor=none;fillColor=none;align=center;verticalAlign=middle;whiteSpace=wrap;rounded=0;" parent="jstP6kvn2U8y0YmbJkcS-16" vertex="1">
          <mxGeometry x="140" y="5" width="60" height="30" as="geometry" />
        </mxCell>
        <mxCell id="jstP6kvn2U8y0YmbJkcS-22" value="VM ReactJS" style="text;html=1;strokeColor=none;fillColor=none;align=center;verticalAlign=middle;whiteSpace=wrap;rounded=0;" parent="jstP6kvn2U8y0YmbJkcS-16" vertex="1">
          <mxGeometry x="100" y="195" width="60" height="30" as="geometry" />
        </mxCell>
        <mxCell id="jstP6kvn2U8y0YmbJkcS-20" value="VM FastAPI" style="text;html=1;strokeColor=none;fillColor=none;align=center;verticalAlign=middle;whiteSpace=wrap;rounded=0;" parent="jstP6kvn2U8y0YmbJkcS-12" vertex="1">
          <mxGeometry x="370" y="190" width="60" height="30" as="geometry" />
        </mxCell>
        <mxCell id="jstP6kvn2U8y0YmbJkcS-21" value="VM FastAPI" style="text;html=1;strokeColor=none;fillColor=none;align=center;verticalAlign=middle;whiteSpace=wrap;rounded=0;" parent="jstP6kvn2U8y0YmbJkcS-12" vertex="1">
          <mxGeometry x="365" y="100" width="60" height="30" as="geometry" />
        </mxCell>
        <mxCell id="jstP6kvn2U8y0YmbJkcS-15" value="" style="swimlane;startSize=0;" parent="1" vertex="1">
          <mxGeometry x="290" y="150" width="170" height="120" as="geometry" />
        </mxCell>
        <mxCell id="jstP6kvn2U8y0YmbJkcS-17" value="Public Subnet" style="text;html=1;strokeColor=none;fillColor=none;align=center;verticalAlign=middle;whiteSpace=wrap;rounded=0;" parent="jstP6kvn2U8y0YmbJkcS-15" vertex="1">
          <mxGeometry x="-10" y="90" width="60" height="30" as="geometry" />
        </mxCell>
        <mxCell id="hEYXg83FIOW5F9FZXFVG-1" value="VM Nginx" style="text;html=1;strokeColor=none;fillColor=none;align=center;verticalAlign=middle;whiteSpace=wrap;rounded=0;" vertex="1" parent="jstP6kvn2U8y0YmbJkcS-15">
          <mxGeometry x="20" y="10" width="60" height="30" as="geometry" />
        </mxCell>
        <mxCell id="jstP6kvn2U8y0YmbJkcS-19" value="Internet/Client" style="text;html=1;strokeColor=none;fillColor=none;align=center;verticalAlign=middle;whiteSpace=wrap;rounded=0;" parent="1" vertex="1">
          <mxGeometry x="60" y="210" width="80" height="50" as="geometry" />
        </mxCell>
        <mxCell id="jstP6kvn2U8y0YmbJkcS-23" value="&lt;b&gt;Micro Services deployment on Google Cloud&lt;/b&gt;" style="text;html=1;strokeColor=none;fillColor=none;align=center;verticalAlign=middle;whiteSpace=wrap;rounded=0;" parent="1" vertex="1">
          <mxGeometry x="220" y="430" width="430" height="30" as="geometry" />
        </mxCell>
      </root>
    </mxGraphModel>
  </diagram>
</mxfile>
